999
"DXF R12 Output" (www.mydxf.blogspot.com)
 0 
SECTION
 2 
HEADER
 9 
$ACADVER
 1 
AC1009
 9 
$EXTMIN
 10 
 0 
 20 
 0 
 9 
$EXTMAX
 10 
 8.5 
 20 
 11 
 0 
ENDSEC
 0 
SECTION
 2 
ENTITIES
0
LINE
8
Layer 1
10
-0.000003
20
26.896770
11
2.360225
21
26.896770
0
LINE
8
Layer 1
10
2.360225
20
26.896770
11
3.133895
21
26.820116
0
LINE
8
Layer 1
10
3.133895
20
26.820116
11
3.814867
21
26.590154
0
LINE
8
Layer 1
10
3.814867
20
26.590154
11
4.378185
21
26.219363
0
LINE
8
Layer 1
10
4.378185
20
26.219363
11
4.798890
21
25.720221
0
LINE
8
Layer 1
10
4.798890
20
25.720221
11
5.060939
21
25.108772
0
LINE
8
Layer 1
10
5.060939
20
25.108772
11
5.148289
21
24.401060
0
LINE
8
Layer 1
10
5.148289
20
24.401060
11
5.060939
21
23.693348
0
LINE
8
Layer 1
10
5.060939
20
23.693348
11
4.798890
21
23.081899
0
LINE
8
Layer 1
10
4.798890
20
23.081899
11
4.378185
21
22.582757
0
LINE
8
Layer 1
10
4.378185
20
22.582757
11
3.814867
21
22.211966
0
LINE
8
Layer 1
10
3.814867
20
22.211966
11
3.133895
21
21.982004
0
LINE
8
Layer 1
10
3.133895
20
21.982004
11
2.360225
21
21.905350
0
LINE
8
Layer 1
10
2.360225
20
21.905350
11
-0.000003
21
21.905350
0
LINE
8
Layer 1
10
-0.000003
20
21.905350
11
-0.000003
21
26.896770
0
LINE
8
Layer 1
10
2.303180
20
23.031985
11
2.880759
21
23.122900
0
LINE
8
Layer 1
10
2.880759
20
23.122900
11
3.329987
21
23.395646
0
LINE
8
Layer 1
10
3.329987
20
23.395646
11
3.624123
21
23.828830
0
LINE
8
Layer 1
10
3.624123
20
23.828830
11
3.722169
21
24.401060
0
LINE
8
Layer 1
10
3.722169
20
24.401060
11
3.624123
21
24.973291
0
LINE
8
Layer 1
10
3.624123
20
24.973291
11
3.329987
21
25.406475
0
LINE
8
Layer 1
10
3.329987
20
25.406475
11
2.880759
21
25.679220
0
LINE
8
Layer 1
10
2.880759
20
25.679220
11
2.303180
21
25.770135
0
LINE
8
Layer 1
10
2.303180
20
25.770135
11
1.411856
21
25.770135
0
LINE
8
Layer 1
10
1.411856
20
25.770135
11
1.411856
21
23.031985
0
LINE
8
Layer 1
10
1.411856
20
23.031985
11
2.303180
21
23.031985
0
LINE
8
Layer 1
10
9.591640
20
21.805522
11
8.839361
21
21.889306
0
LINE
8
Layer 1
10
8.839361
20
21.889306
11
8.165520
21
22.140660
0
LINE
8
Layer 1
10
8.165520
20
22.140660
11
7.603985
21
22.539973
0
LINE
8
Layer 1
10
7.603985
20
22.539973
11
7.174367
21
23.067638
0
LINE
8
Layer 1
10
7.174367
20
23.067638
11
6.906970
21
23.696913
0
LINE
8
Layer 1
10
6.906970
20
23.696913
11
6.817837
21
24.401060
0
LINE
8
Layer 1
10
6.817837
20
24.401060
11
6.906970
21
25.105206
0
LINE
8
Layer 1
10
6.906970
20
25.105206
11
7.174367
21
25.734482
0
LINE
8
Layer 1
10
7.174367
20
25.734482
11
7.603985
21
26.262146
0
LINE
8
Layer 1
10
7.603985
20
26.262146
11
8.165520
21
26.661460
0
LINE
8
Layer 1
10
8.165520
20
26.661460
11
8.839361
21
26.912813
0
LINE
8
Layer 1
10
8.839361
20
26.912813
11
9.591640
21
26.996598
0
LINE
8
Layer 1
10
9.591640
20
26.996598
11
10.342135
21
26.912813
0
LINE
8
Layer 1
10
10.342135
20
26.912813
11
11.010629
21
26.661460
0
LINE
8
Layer 1
10
11.010629
20
26.661460
11
11.575729
21
26.262146
0
LINE
8
Layer 1
10
11.575729
20
26.262146
11
12.001782
21
25.734482
0
LINE
8
Layer 1
10
12.001782
20
25.734482
11
12.274528
21
25.105206
0
LINE
8
Layer 1
10
12.274528
20
25.105206
11
12.365443
21
24.401060
0
LINE
8
Layer 1
10
12.365443
20
24.401060
11
12.274528
21
23.696913
0
LINE
8
Layer 1
10
12.274528
20
23.696913
11
12.001782
21
23.067638
0
LINE
8
Layer 1
10
12.001782
20
23.067638
11
11.575729
21
22.539973
0
LINE
8
Layer 1
10
11.575729
20
22.539973
11
11.010629
21
22.140660
0
LINE
8
Layer 1
10
11.010629
20
22.140660
11
10.342135
21
21.889306
0
LINE
8
Layer 1
10
10.342135
20
21.889306
11
9.591640
21
21.805522
0
LINE
8
Layer 1
10
9.591640
20
21.805522
11
9.591640
21
21.805522
0
LINE
8
Layer 1
10
9.591640
20
22.974940
11
10.276177
21
23.153205
0
LINE
8
Layer 1
10
10.276177
20
23.153205
11
10.761058
21
23.652347
0
LINE
8
Layer 1
10
10.761058
20
23.652347
11
10.939323
21
24.401060
0
LINE
8
Layer 1
10
10.939323
20
24.401060
11
10.761058
21
25.142642
0
LINE
8
Layer 1
10
10.761058
20
25.142642
11
10.276177
21
25.648915
0
LINE
8
Layer 1
10
10.276177
20
25.648915
11
9.591640
21
25.827180
0
LINE
8
Layer 1
10
9.591640
20
25.827180
11
8.907102
21
25.648915
0
LINE
8
Layer 1
10
8.907102
20
25.648915
11
8.422221
21
25.142642
0
LINE
8
Layer 1
10
8.422221
20
25.142642
11
8.243957
21
24.401060
0
LINE
8
Layer 1
10
8.243957
20
24.401060
11
8.422221
21
23.652347
0
LINE
8
Layer 1
10
8.422221
20
23.652347
11
8.907102
21
23.153205
0
LINE
8
Layer 1
10
8.907102
20
23.153205
11
9.591640
21
22.974940
0
LINE
8
Layer 1
10
9.591640
20
22.974940
11
9.591640
21
22.974940
0
LINE
8
Layer 1
10
14.291695
20
26.896770
11
16.651924
21
26.896770
0
LINE
8
Layer 1
10
16.651924
20
26.896770
11
17.425594
21
26.820116
0
LINE
8
Layer 1
10
17.425594
20
26.820116
11
18.106566
21
26.590154
0
LINE
8
Layer 1
10
18.106566
20
26.590154
11
18.669883
21
26.219363
0
LINE
8
Layer 1
10
18.669883
20
26.219363
11
19.090589
21
25.720221
0
LINE
8
Layer 1
10
19.090589
20
25.720221
11
19.352638
21
25.108772
0
LINE
8
Layer 1
10
19.352638
20
25.108772
11
19.439988
21
24.401060
0
LINE
8
Layer 1
10
19.439988
20
24.401060
11
19.352638
21
23.693348
0
LINE
8
Layer 1
10
19.352638
20
23.693348
11
19.090589
21
23.081899
0
LINE
8
Layer 1
10
19.090589
20
23.081899
11
18.669883
21
22.582757
0
LINE
8
Layer 1
10
18.669883
20
22.582757
11
18.106566
21
22.211966
0
LINE
8
Layer 1
10
18.106566
20
22.211966
11
17.425594
21
21.982004
0
LINE
8
Layer 1
10
17.425594
20
21.982004
11
16.651924
21
21.905350
0
LINE
8
Layer 1
10
16.651924
20
21.905350
11
14.291695
21
21.905350
0
LINE
8
Layer 1
10
14.291695
20
21.905350
11
14.291695
21
26.896770
0
LINE
8
Layer 1
10
16.594879
20
23.031985
11
17.172458
21
23.122900
0
LINE
8
Layer 1
10
17.172458
20
23.122900
11
17.621685
21
23.395646
0
LINE
8
Layer 1
10
17.621685
20
23.395646
11
17.915822
21
23.828830
0
LINE
8
Layer 1
10
17.915822
20
23.828830
11
18.013868
21
24.401060
0
LINE
8
Layer 1
10
18.013868
20
24.401060
11
17.915822
21
24.973291
0
LINE
8
Layer 1
10
17.915822
20
24.973291
11
17.621685
21
25.406475
0
LINE
8
Layer 1
10
17.621685
20
25.406475
11
17.172458
21
25.679220
0
LINE
8
Layer 1
10
17.172458
20
25.679220
11
16.594879
21
25.770135
0
LINE
8
Layer 1
10
16.594879
20
25.770135
11
15.703554
21
25.770135
0
LINE
8
Layer 1
10
15.703554
20
25.770135
11
15.703554
21
23.031985
0
LINE
8
Layer 1
10
15.703554
20
23.031985
11
16.594879
21
23.031985
0
LINE
8
Layer 1
10
25.373634
20
22.996335
11
25.373634
21
21.905353
0
LINE
8
Layer 1
10
25.373634
20
21.905353
11
21.366237
21
21.905353
0
LINE
8
Layer 1
10
21.366237
20
21.905353
11
21.366237
21
26.896773
0
LINE
8
Layer 1
10
21.366237
20
26.896773
11
25.280933
21
26.896773
0
LINE
8
Layer 1
10
25.280933
20
26.896773
11
25.280933
21
25.805791
0
LINE
8
Layer 1
10
25.280933
20
25.805791
11
22.763836
21
25.805791
0
LINE
8
Layer 1
10
22.763836
20
25.805791
11
22.763836
21
24.964380
0
LINE
8
Layer 1
10
22.763836
20
24.964380
11
24.981449
21
24.964380
0
LINE
8
Layer 1
10
24.981449
20
24.964380
11
24.981449
21
23.909052
0
LINE
8
Layer 1
10
24.981449
20
23.909052
11
22.763836
21
23.909052
0
LINE
8
Layer 1
10
22.763836
20
23.909052
11
22.763836
21
22.996335
0
LINE
8
Layer 1
10
22.763836
20
22.996335
11
25.373634
21
22.996335
0
LINE
8
Layer 1
10
29.624463
20
26.896772
11
30.801010
21
26.668593
0
LINE
8
Layer 1
10
30.801010
20
26.668593
11
31.571118
21
26.026839
0
LINE
8
Layer 1
10
31.571118
20
26.026839
11
31.774339
21
25.575829
0
LINE
8
Layer 1
10
31.774339
20
25.575829
11
31.842080
21
25.049947
0
LINE
8
Layer 1
10
31.842080
20
25.049947
11
31.774339
21
24.524066
0
LINE
8
Layer 1
10
31.774339
20
24.524066
11
31.571118
21
24.073055
0
LINE
8
Layer 1
10
31.571118
20
24.073055
11
30.801010
21
23.431301
0
LINE
8
Layer 1
10
30.801010
20
23.431301
11
29.624463
21
23.210253
0
LINE
8
Layer 1
10
29.624463
20
23.210253
11
28.754531
21
23.210253
0
LINE
8
Layer 1
10
28.754531
20
23.210253
11
28.754531
21
21.905353
0
LINE
8
Layer 1
10
28.754531
20
21.905353
11
27.342670
21
21.905353
0
LINE
8
Layer 1
10
27.342670
20
21.905353
11
27.342670
21
26.896773
0
LINE
8
Layer 1
10
27.342670
20
26.896773
11
29.624463
21
26.896772
0
LINE
8
Layer 1
10
29.538903
20
24.322626
11
30.194915
21
24.508021
0
LINE
8
Layer 1
10
30.194915
20
24.508021
11
30.415966
21
25.049947
0
LINE
8
Layer 1
10
30.415966
20
25.049947
11
30.194915
21
25.591873
0
LINE
8
Layer 1
10
30.194915
20
25.591873
11
29.538903
21
25.784399
0
LINE
8
Layer 1
10
29.538903
20
25.784399
11
28.754536
21
25.784399
0
LINE
8
Layer 1
10
28.754536
20
25.784399
11
28.754536
21
24.322626
0
LINE
8
Layer 1
10
28.754536
20
24.322626
11
29.538903
21
24.322626
0
LINE
8
Layer 1
10
36.805960
20
22.875114
11
34.695302
21
22.875114
0
LINE
8
Layer 1
10
34.695302
20
22.875114
11
34.303121
21
21.905353
0
LINE
8
Layer 1
10
34.303121
20
21.905353
11
32.862739
21
21.905353
0
LINE
8
Layer 1
10
32.862739
20
21.905353
11
35.066093
21
26.896772
0
LINE
8
Layer 1
10
35.066093
20
26.896772
11
36.456560
21
26.896772
0
LINE
8
Layer 1
10
36.456560
20
26.896772
11
38.667046
21
21.905353
0
LINE
8
Layer 1
10
38.667046
20
21.905353
11
37.198146
21
21.905353
0
LINE
8
Layer 1
10
37.198146
20
21.905353
11
36.805960
21
22.875114
0
LINE
8
Layer 1
10
36.392385
20
23.916182
11
35.750631
21
25.513436
0
LINE
8
Layer 1
10
35.750631
20
25.513436
11
35.108878
21
23.916182
0
LINE
8
Layer 1
10
35.108878
20
23.916182
11
36.392385
21
23.916182
0
LINE
8
Layer 1
10
45.000002
20
26.896772
11
45.000002
21
21.905353
0
LINE
8
Layer 1
10
45.000002
20
21.905353
11
43.837713
21
21.905353
0
LINE
8
Layer 1
10
43.837713
20
21.905353
11
41.634359
21
24.565066
0
LINE
8
Layer 1
10
41.634359
20
24.565066
11
41.634359
21
21.905353
0
LINE
8
Layer 1
10
41.634359
20
21.905353
11
40.251019
21
21.905353
0
LINE
8
Layer 1
10
40.251019
20
21.905353
11
40.251019
21
26.896773
0
LINE
8
Layer 1
10
40.251019
20
26.896773
11
41.413308
21
26.896773
0
LINE
8
Layer 1
10
41.413308
20
26.896773
11
43.616662
21
24.237059
0
LINE
8
Layer 1
10
43.616662
20
24.237059
11
43.616662
21
26.896770
0
LINE
8
Layer 1
10
43.616662
20
26.896770
11
45.000002
21
26.896772
0
LINE
8
Layer 1
10
22.499902
20
48.802165
11
1.368101
21
36.601853
0
LINE
8
Layer 1
10
1.368101
20
36.601853
11
1.368101
21
28.424725
0
LINE
8
Layer 1
10
1.368101
20
28.424725
11
2.795645
21
28.424725
0
LINE
8
Layer 1
10
2.795645
20
28.424725
11
2.795645
21
35.777152
0
LINE
8
Layer 1
10
2.795645
20
35.777152
11
22.499902
21
47.152995
0
LINE
8
Layer 1
10
22.499902
20
47.152995
11
42.204163
21
35.777152
0
LINE
8
Layer 1
10
42.204163
20
35.777152
11
42.204163
21
28.424725
0
LINE
8
Layer 1
10
42.204163
20
28.424725
11
43.631934
21
28.424725
0
LINE
8
Layer 1
10
43.631934
20
28.424725
11
43.631934
21
36.601853
0
LINE
8
Layer 1
10
43.631934
20
36.601853
11
22.499902
21
48.802165
0
LINE
8
Layer 1
10
1.368101
20
20.377435
11
1.368101
21
12.200307
0
LINE
8
Layer 1
10
1.368101
20
12.200307
11
22.499902
21
-0.000007
0
LINE
8
Layer 1
10
22.499902
20
-0.000007
11
43.631934
21
12.200307
0
LINE
8
Layer 1
10
43.631934
20
12.200307
11
43.631934
21
20.377435
0
LINE
8
Layer 1
10
43.631934
20
20.377435
11
42.204163
21
20.377435
0
LINE
8
Layer 1
10
42.204163
20
20.377435
11
42.204163
21
13.024777
0
LINE
8
Layer 1
10
42.204163
20
13.024777
11
22.499902
21
1.649168
0
LINE
8
Layer 1
10
22.499902
20
1.649168
11
2.795645
21
13.024777
0
LINE
8
Layer 1
10
2.795645
20
13.024777
11
2.795645
21
20.377435
0
LINE
8
Layer 1
10
2.795645
20
20.377435
11
1.368101
21
20.377435
 0 
ENDSEC
 0 
EOF