%TF.GenerationSoftware,KiCad,Pcbnew,8.0.5*%
%TF.CreationDate,2024-09-20T22:11:25+01:00*%
%TF.ProjectId,Dodepan_PCB_THT.kicad_pro,446f6465-7061-46e5-9f50-43425f544854,rev?*%
%TF.SameCoordinates,Original*%
%TF.FileFunction,Copper,L2,Bot*%
%TF.FilePolarity,Positive*%
%FSLAX46Y46*%
G04 Gerber Fmt 4.6, Leading zero omitted, Abs format (unit mm)*
G04 Created by KiCad (PCBNEW 8.0.5) date 2024-09-20 22:11:25*
%MOMM*%
%LPD*%
G01*
G04 APERTURE LIST*
G04 Aperture macros list*
%AMHorizOval*
0 Thick line with rounded ends*
0 $1 width*
0 $2 $3 position (X,Y) of the first rounded end (center of the circle)*
0 $4 $5 position (X,Y) of the second rounded end (center of the circle)*
0 Add line between two ends*
20,1,$1,$2,$3,$4,$5,0*
0 Add two circle primitives to create the rounded ends*
1,1,$1,$2,$3*
1,1,$1,$4,$5*%
G04 Aperture macros list end*
%TA.AperFunction,ComponentPad*%
%ADD10C,2.400000*%
%TD*%
%TA.AperFunction,ComponentPad*%
%ADD11O,2.400000X2.400000*%
%TD*%
%TA.AperFunction,ComponentPad*%
%ADD12C,1.930400*%
%TD*%
%TA.AperFunction,ComponentPad*%
%ADD13C,2.184400*%
%TD*%
%TA.AperFunction,ComponentPad*%
%ADD14R,1.700000X1.700000*%
%TD*%
%TA.AperFunction,ComponentPad*%
%ADD15O,1.700000X1.700000*%
%TD*%
%TA.AperFunction,ComponentPad*%
%ADD16R,2.800000X2.800000*%
%TD*%
%TA.AperFunction,ComponentPad*%
%ADD17C,2.000000*%
%TD*%
%TA.AperFunction,ComponentPad*%
%ADD18HorizOval,1.200000X-0.433013X0.250000X0.433013X-0.250000X0*%
%TD*%
%TA.AperFunction,ComponentPad*%
%ADD19HorizOval,1.200000X0.250000X0.433013X-0.250000X-0.433013X0*%
%TD*%
%TA.AperFunction,ComponentPad*%
%ADD20HorizOval,1.600000X0.175000X0.303109X-0.175000X-0.303109X0*%
%TD*%
%TA.AperFunction,ComponentPad*%
%ADD21HorizOval,1.200000X-0.250000X-0.433013X0.250000X0.433013X0*%
%TD*%
%TA.AperFunction,ComponentPad*%
%ADD22HorizOval,1.600000X-0.225000X-0.389711X0.225000X0.389711X0*%
%TD*%
%TA.AperFunction,ComponentPad*%
%ADD23R,2.000000X2.000000*%
%TD*%
%TA.AperFunction,ComponentPad*%
%ADD24C,3.200000*%
%TD*%
%TA.AperFunction,ViaPad*%
%ADD25C,0.600000*%
%TD*%
%TA.AperFunction,Conductor*%
%ADD26C,0.500000*%
%TD*%
%TA.AperFunction,Conductor*%
%ADD27C,0.200000*%
%TD*%
G04 APERTURE END LIST*
D10*
%TO.P,R2,1*%
%TO.N,Net-(OLED1-SDA)*%
X143200000Y-110000000D03*
D11*
%TO.P,R2,2*%
%TO.N,VCC*%
X130500000Y-110000000D03*
%TD*%
D10*
%TO.P,R2,1*%
%TO.N,Net-(OLED1-SCL)*%
X143200000Y-105000000D03*
D11*
%TO.P,R2,2*%
%TO.N,VCC*%
X130500000Y-105000000D03*
%TD*%
D10*
%TO.P,E8,1,1*%
%TO.N,Net-(U4-LED4{slash}ELE8)*%
X147675600Y-59385200D03*
%TD*%
D12*
%TO.P,MAX98357A,1,DIN*%
%TO.N,Net-(U5-GPIO2)*%
X152400000Y-58391200D03*
%TO.P,MAX98357A,2,GAIN_SLOT*%
%TO.N,Net-(U6-GAIN_SLOT)*%
X152400000Y-60931200D03*
%TO.P,MAX98357A,3,GND*%
%TO.N,Earth*%
X152400000Y-66011200D03*
%TO.P,MAX98357A,4,~{SD_MODE}*%
%TO.N,unconnected-(U6-~{SD_MODE}-Pad4)*%
X152400000Y-63471200D03*
%TO.P,MAX98357A,7,VDD*%
%TO.N,VCC*%
X152400000Y-68551200D03*
D13*
%TO.P,MAX98357A,9,OUTP*%
%TO.N,Net-(U6-OUTP)*%
X165354000Y-62631200D03*
%TO.P,MAX98357A,10,OUTN*%
%TO.N,Net-(U6-OUTN)*%
X165354000Y-59131200D03*
D12*
%TO.P,MAX98357A,14,LRCLK*%
%TO.N,Net-(U5-GPIO1)*%
X152400000Y-53311200D03*
%TO.P,MAX98357A,16,BCLK*%
%TO.N,Net-(U5-GPIO0)*%
X152400000Y-55851200D03*
%TD*%
D13*
%TO.P,,9,OUTP*%
%TO.N,SPEAKERP*%
X176784000Y-64262000D03*
%TD*%
D10*
%TO.P,R1,1*%
%TO.N,Net-(U6-GAIN_SLOT)*%
X168046400Y-72288400D03*
D11*
%TO.P,R1,2*%
%TO.N,Earth*%
X155346400Y-72288400D03*
%TD*%
D14*
%TO.P,Battery,1*%
%TO.N,-BATT*%
X137000000Y-117048600D03*
D15*
%TO.P,Battery,2*%
%TO.N,+BATT*%
X137000000Y-114508600D03*
%TD*%
D10*
%TO.P,E6,1,1*%
%TO.N,Net-(U4-LED2{slash}ELE6)*%
X173151800Y-69900800D03*
%TD*%
D16*
%TO.P,TP4056,1,B+*%
%TO.N,+EXTERN_5V*%
X86741000Y-108203500D03*
%TO.P,TP4056,2,B-*%
%TO.N,-EXTERN_5V*%
X86741000Y-122403500D03*
%TO.P,TP4056,3,VCC_OUT*%
%TO.N,Net-(TP1-VCC_OUT)*%
X109641000Y-108203500D03*
%TO.P,TP4056,4,GND_OUT*%
%TO.N,Earth*%
X109641000Y-122703500D03*
%TO.P,TP4056,5*%
%TO.N,+BATT*%
X109641000Y-111703500D03*
%TO.P,TP4056,6,NC*%
%TO.N,-BATT*%
X109641000Y-119303500D03*
%TD*%
D10*
%TO.P,E11,1,1*%
%TO.N,Net-(U4-LED7{slash}ELE11)*%
X147701000Y-79375000D03*
%TD*%
%TO.P,E7,1,1*%
%TO.N,Net-(U4-LED3{slash}ELE7)*%
X122224800Y-69900800D03*
%TD*%
%TO.P,E0,1,1*%
%TO.N,Net-(U4-ELE0)*%
X147701000Y-111379000D03*
%TD*%
D17*
%TO.P,GY-521,1,VDD*%
%TO.N,VCC*%
X138684000Y-101269800D03*
%TO.P,GY-521,2,GND*%
%TO.N,Earth*%
X141224000Y-101269800D03*
%TO.P,GY-521,3,SCL*%
%TO.N,Net-(OLED1-SCL)*%
X143764000Y-101269800D03*
%TO.P,GY-521,4,SDA*%
%TO.N,Net-(OLED1-SDA)*%
X146304000Y-101269800D03*
%TO.P,GY-521,5,AUX_SDA*%
%TO.N,N/C*%
X148844000Y-101269800D03*
%TO.P,GY-521,6,AUX_SCL*%
%TO.N,unconnected-(U3-AUX_SCL-Pad6)*%
X151384000Y-101269800D03*
%TO.P,GY-521,7,AD0*%
%TO.N,unconnected-(U3-AD0-Pad7)*%
X153924000Y-101269800D03*
%TO.P,GY-521,8,INT*%
%TO.N,unconnected-(U3-INT-Pad8)*%
X156464000Y-101269800D03*
%TD*%
D14*
%TO.P,Extern_5V,1*%
%TO.N,-EXTERN_5V*%
X86868000Y-100330000D03*
D15*
%TO.P,Extern_5V,2*%
%TO.N,+EXTERN_5V*%
X86868000Y-102870000D03*
%TD*%
D10*
%TO.P,E4,1,1*%
%TO.N,Net-(U4-LED0{slash}ELE4)*%
X183692800Y-95377000D03*
%TD*%
%TO.P,E5,1,1*%
%TO.N,Net-(U4-LED1{slash}ELE5)*%
X111709200Y-95377000D03*
%TD*%
D14*
%TO.P,Power_sw,1*%
%TO.N,Net-(TP1-VCC_OUT)*%
X123975000Y-104250000D03*
D15*
%TO.P,Power_sw,2*%
%TO.N,VCC*%
X123975000Y-101710000D03*
%TD*%
D10*
%TO.P,E10,1,1*%
%TO.N,Net-(U4-LED6{slash}ELE10)*%
X131673600Y-95351600D03*
%TD*%
D17*
%TO.P,MPR121,1,VDD*%
%TO.N,+3.3V*%
X152044400Y-111760000D03*
%TO.P,MPR121,2,~{IRQ}*%
%TO.N,unconnected-(U4-~{IRQ}-Pad2)*%
X152044400Y-114300000D03*
%TO.P,MPR121,3,SCL*%
%TO.N,Net-(U4-SCL)*%
X152044400Y-116840000D03*
%TO.P,MPR121,4,SDA*%
%TO.N,Net-(U4-SDA)*%
X152044400Y-119380000D03*
%TO.P,MPR121,5,ADDR*%
%TO.N,unconnected-(U4-ADDR-Pad5)*%
X152044400Y-121920000D03*
%TO.P,MPR121,6,GND*%
%TO.N,Earth*%
X152044400Y-124460000D03*
%TO.P,MPR121,7,ELE0*%
%TO.N,Net-(U4-ELE0)*%
X169824400Y-132080000D03*
%TO.P,MPR121,8,ELE1*%
%TO.N,Net-(U4-ELE1)*%
X169824400Y-129540000D03*
%TO.P,MPR121,9,ELE2*%
%TO.N,Net-(U4-ELE2)*%
X169824400Y-127000000D03*
%TO.P,MPR121,10,ELE3*%
%TO.N,Net-(U4-ELE3)*%
X169824400Y-124460000D03*
%TO.P,MPR121,11,LED0/ELE4*%
%TO.N,Net-(U4-LED0{slash}ELE4)*%
X169824400Y-121920000D03*
%TO.P,MPR121,12,LED1/ELE5*%
%TO.N,Net-(U4-LED1{slash}ELE5)*%
X169824400Y-119380000D03*
%TO.P,MPR121,13,LED2/ELE6*%
%TO.N,Net-(U4-LED2{slash}ELE6)*%
X169824400Y-116840000D03*
%TO.P,MPR121,14,LED3/ELE7*%
%TO.N,Net-(U4-LED3{slash}ELE7)*%
X169824400Y-114300000D03*
%TO.P,MPR121,15,LED4/ELE8*%
%TO.N,Net-(U4-LED4{slash}ELE8)*%
X169824400Y-111760000D03*
%TO.P,MPR121,16,LED5/ELE9*%
%TO.N,Net-(U4-LED5{slash}ELE9)*%
X169824400Y-109220000D03*
%TO.P,MPR121,17,LED6/ELE10*%
%TO.N,Net-(U4-LED6{slash}ELE10)*%
X169824400Y-106680000D03*
%TO.P,MPR121,18,LED7/ELE11*%
%TO.N,Net-(U4-LED7{slash}ELE11)*%
X169824400Y-104140000D03*
%TD*%
D18*
%TO.P,3.5mm jack,G*%
%TO.N,Net-(U6-OUTN)*%
X177419873Y-45165064D03*
D19*
%TO.P,3.5mm jack,S*%
%TO.N,Net-(U6-OUTP)*%
X179250000Y-51995191D03*
D20*
%TO.P,3.5mm jack,SN*%
%TO.N,unconnected-(J1-PadSN)*%
X177084937Y-50745191D03*
D21*
%TO.P,3.5mm jack,T*%
%TO.N,Net-(U6-OUTP)*%
X170589746Y-46995191D03*
D22*
%TO.P,3.5mm jack,TN*%
%TO.N,SPEAKERP*%
X172754809Y-48245191D03*
%TD*%
D13*
%TO.P,,10,OUTN*%
%TO.N,Net-(U6-OUTN)*%
X173284000Y-64262000D03*
%TD*%
D10*
%TO.P,E2,1,1*%
%TO.N,Net-(U4-ELE2)*%
X173151800Y-120827800D03*
%TD*%
%TO.P,E3,1,1*%
%TO.N,Net-(U4-ELE3)*%
X122250200Y-120853200D03*
%TD*%
D23*
%TO.P,C1,1*%
%TO.N,VCC*%
X100076000Y-99070000D03*
D17*
%TO.P,C1,2*%
%TO.N,Earth*%
X100076000Y-102870000D03*
%TD*%
D10*
%TO.P,E9,1,1*%
%TO.N,Net-(U4-LED5{slash}ELE9)*%
X163677600Y-95377000D03*
%TD*%
%TO.P,E1,1,1*%
%TO.N,Net-(U4-ELE1)*%
X147675600Y-131368800D03*
%TD*%
D17*
%TO.P,OLED,1,GND*%
%TO.N,Earth*%
X166560000Y-48768000D03*
%TO.P,OLED,2,VCC*%
%TO.N,VCC*%
X166560000Y-46228000D03*
%TO.P,OLED,3,SCL*%
%TO.N,Net-(OLED1-SCL)*%
X166560000Y-43688000D03*
%TO.P,OLED,4,SDA*%
%TO.N,Net-(OLED1-SDA)*%
X166560000Y-41148000D03*
%TD*%
D23*
%TO.P,Encoder,A,A*%
%TO.N,Net-(U5-GPIO18)*%
X121285000Y-54142000D03*
D17*
%TO.P,Encoder,B,B*%
%TO.N,Net-(U5-GPIO19)*%
X121285000Y-59142000D03*
%TO.P,Encoder,C,C*%
%TO.N,Earth*%
X121285000Y-56642000D03*
D24*
%TO.P,Encoder,MP*%
%TO.N,N/C*%
X113785000Y-62242000D03*
X113785000Y-51042000D03*
D17*
%TO.P,Encoder,S1,S1*%
%TO.N,Net-(U5-GPIO21)*%
X106785000Y-59142000D03*
%TO.P,Encoder,S2,S2*%
%TO.N,Earth*%
X106785000Y-54142000D03*
%TD*%
D25*
%TO.N,Earth*%
X91236800Y-67386200D03*
%TO.N,Net-(U4-LED1{slash}ELE5)*%
X123190000Y-95250000D03*
%TO.N,Net-(U4-LED3{slash}ELE7)*%
X122301000Y-75184000D03*
%TO.N,Net-(OLED1-SDA)*%
X106680000Y-98298000D03*
%TO.N,VCC*%
X88823800Y-66675000D03*
X88849200Y-75336400D03*
%TO.N,+3.3V*%
X96418400Y-87020400D03*
%TO.N,Net-(U4-SCL)*%
X101549200Y-88671400D03*
%TO.N,Net-(U4-SDA)*%
X99009200Y-87604600D03*
%TO.N,Net-(U5-GPIO0)*%
X91440000Y-87604600D03*
%TO.N,Net-(U5-GPIO1)*%
X89027000Y-88696800D03*
%TO.N,Net-(U5-GPIO2)*%
X93929200Y-87045800D03*
%TD*%
D26*
%TO.N,Earth*%
X111480600Y-56642000D02*
X112166400Y-56642000D01*
X112166400Y-56642000D02*
X118160800Y-50647600D01*
X118160800Y-50647600D02*
X164680400Y-50647600D01*
X164680400Y-50647600D02*
X166560000Y-48768000D01*
%TO.N,VCC*%
X166560000Y-46228000D02*
X166522000Y-46228000D01*
X95046800Y-66446400D02*
X89052400Y-66446400D01*
X166522000Y-46228000D02*
X163982000Y-48768000D01*
X163982000Y-48768000D02*
X107950000Y-48768000D01*
X96520000Y-60198000D02*
X96520000Y-64973200D01*
X107950000Y-48768000D02*
X96520000Y-60198000D01*
X89052400Y-66446400D02*
X88823800Y-66675000D01*
X96520000Y-64973200D02*
X95046800Y-66446400D01*
D27*
%TO.N,SPEAKERP*%
X173006000Y-57944000D02*
X176784000Y-61722000D01*
X172754809Y-48245191D02*
X172754809Y-57692809D01*
X172754809Y-57692809D02*
X173006000Y-57944000D01*
D26*
%TO.N,Earth*%
X100507800Y-67386200D02*
X91236800Y-67386200D01*
X121285000Y-56642000D02*
X111480600Y-56642000D01*
X129413000Y-118795800D02*
X118313200Y-118795800D01*
X103238300Y-57688700D02*
X103238300Y-64655700D01*
X111480600Y-56642000D02*
X109285000Y-56642000D01*
X109285000Y-56642000D02*
X106785000Y-54142000D01*
X106785000Y-54142000D02*
X103238300Y-57688700D01*
X144253486Y-122783600D02*
X140265686Y-118795800D01*
X155346400Y-68957600D02*
X152400000Y-66011200D01*
X150368000Y-122783600D02*
X144253486Y-122783600D01*
X114405500Y-122703500D02*
X109641000Y-122703500D01*
X152044400Y-124460000D02*
X150368000Y-122783600D01*
X155346400Y-72288400D02*
X155346400Y-68957600D01*
X103238300Y-64655700D02*
X100507800Y-67386200D01*
X141224000Y-101269800D02*
X141224000Y-106984800D01*
X141224000Y-106984800D02*
X129413000Y-118795800D01*
X118313200Y-118795800D02*
X114405500Y-122703500D01*
X140265686Y-118795800D02*
X129413000Y-118795800D01*
D27*
%TO.N,Net-(U4-ELE3)*%
X167894000Y-124460000D02*
X169824400Y-124460000D01*
X147574000Y-126669800D02*
X147574000Y-126695200D01*
X165658800Y-126695200D02*
X167894000Y-124460000D01*
X122250200Y-120853200D02*
X126009400Y-124612400D01*
X145516600Y-124612400D02*
X147574000Y-126669800D01*
X126009400Y-124612400D02*
X145516600Y-124612400D01*
X147574000Y-126695200D02*
X165658800Y-126695200D01*
%TO.N,Net-(U4-LED1{slash}ELE5)*%
X123190000Y-95250000D02*
X123063000Y-95377000D01*
X123063000Y-95377000D02*
X111709200Y-95377000D01*
%TO.N,Net-(U4-LED3{slash}ELE7)*%
X167992305Y-112467905D02*
X167992305Y-103984305D01*
X167992305Y-103984305D02*
X139192000Y-75184000D01*
X139192000Y-75184000D02*
X122301000Y-75184000D01*
X169824400Y-114300000D02*
X167992305Y-112467905D01*
%TO.N,Net-(U6-OUTN)*%
X170484800Y-64262000D02*
X165354000Y-59131200D01*
X173228000Y-64262000D02*
X170484800Y-64262000D01*
%TO.N,Net-(OLED1-SDA)*%
X146304000Y-100584000D02*
X146304000Y-101269800D01*
X144018000Y-98298000D02*
X146304000Y-100584000D01*
X106680000Y-98298000D02*
X144018000Y-98298000D01*
%TO.N,Net-(U6-GAIN_SLOT)*%
X168046400Y-72288400D02*
X163757200Y-72288400D01*
X163757200Y-72288400D02*
X152400000Y-60931200D01*
D26*
%TO.N,VCC*%
X100076000Y-99070000D02*
X99832000Y-99314000D01*
X95275400Y-99314000D02*
X87858600Y-91897200D01*
X99832000Y-99314000D02*
X95275400Y-99314000D01*
X87858600Y-76327000D02*
X88849200Y-75336400D01*
X87858600Y-91897200D02*
X87858600Y-76327000D01*
%TO.N,+3.3V*%
X158242000Y-105562399D02*
X152044400Y-111760000D01*
X154686000Y-97028000D02*
X158242000Y-100584000D01*
X96418400Y-92354400D02*
X101600000Y-97536000D01*
X144348982Y-97036800D02*
X154677200Y-97036800D01*
X154677200Y-97036800D02*
X154686000Y-97028000D01*
X158242000Y-100584000D02*
X158242000Y-105562399D01*
X101600000Y-97536000D02*
X143849782Y-97536000D01*
X143849782Y-97536000D02*
X144348982Y-97036800D01*
X96418400Y-87020400D02*
X96418400Y-92354400D01*
D27*
%TO.N,Net-(U4-SCL)*%
X159766000Y-109118400D02*
X159766000Y-97282000D01*
X152044400Y-116840000D02*
X159766000Y-109118400D01*
X159766000Y-97282000D02*
X151155400Y-88671400D01*
X151155400Y-88671400D02*
X101549200Y-88671400D01*
%TO.N,Net-(U4-SDA)*%
X160782000Y-110642400D02*
X160782000Y-97536000D01*
X150850600Y-87604600D02*
X99009200Y-87604600D01*
X152044400Y-119380000D02*
X160782000Y-110642400D01*
X160782000Y-97536000D02*
X150850600Y-87604600D01*
%TO.N,Net-(U5-GPIO0)*%
X91617800Y-87604600D02*
X91440000Y-87604600D01*
X102082600Y-77139800D02*
X91617800Y-87604600D01*
X117906800Y-77038200D02*
X117805200Y-77139800D01*
X152400000Y-55851200D02*
X139093800Y-55851200D01*
X139093800Y-55851200D02*
X117906800Y-77038200D01*
X117805200Y-77139800D02*
X102082600Y-77139800D01*
%TO.N,Net-(U5-GPIO1)*%
X118351721Y-75895200D02*
X101981000Y-75895200D01*
X140935721Y-53311200D02*
X118351721Y-75895200D01*
X89027000Y-88696800D02*
X101828600Y-75895200D01*
X101828600Y-75895200D02*
X101981000Y-75895200D01*
X152400000Y-53311200D02*
X140935721Y-53311200D01*
%TO.N,Net-(U5-GPIO2)*%
X149602600Y-61188600D02*
X134975600Y-61188600D01*
X118008400Y-78155800D02*
X102819200Y-78155800D01*
X102819200Y-78155800D02*
X93929200Y-87045800D01*
X134975600Y-61188600D02*
X118008400Y-78155800D01*
X152400000Y-58391200D02*
X149602600Y-61188600D01*
%TO.N,SPEAKERP*%
X176784000Y-61722000D02*
X176784000Y-64262000D01*
%TD*%
M02*
