M48
; DRILL file {KiCad 8.0.5} date 2024-09-20T22:11:23+0100
; FORMAT={-:-/ absolute / inch / decimal}
; #@! TF.CreationDate,2024-09-20T22:11:23+01:00
; #@! TF.GenerationSoftware,Kicad,Pcbnew,8.0.5
; #@! TF.FileFunction,Plated,1,2,PTH
FMAT,2
INCH
; #@! TA.AperFunction,Plated,PTH,ViaDrill
T1C0.0118
; #@! TA.AperFunction,Plated,PTH,ComponentDrill
T2C0.0157
; #@! TA.AperFunction,Plated,PTH,ComponentDrill
T3C0.0315
; #@! TA.AperFunction,Plated,PTH,ComponentDrill
T4C0.0394
; #@! TA.AperFunction,Plated,PTH,ComponentDrill
T5C0.0472
; #@! TA.AperFunction,Plated,PTH,ComponentDrill
T6C0.0606
; #@! TA.AperFunction,Plated,PTH,ComponentDrill
T7C0.0630
; #@! TA.AperFunction,Plated,PTH,ComponentDrill
T8C0.1024
%
G90
G05
T1
X3.497Y-2.625
X3.498Y-2.966
X3.505Y-3.492
X3.592Y-2.653
X3.6Y-3.449
X3.698Y-3.427
X3.796Y-3.426
X3.898Y-3.449
X3.998Y-3.491
X4.2Y-3.87
X4.815Y-2.96
X4.85Y-3.75
T4
X3.42Y-3.95
X3.42Y-4.05
X3.94Y-3.9004
X3.94Y-4.05
X4.2041Y-2.1316
X4.2041Y-2.3284
X4.775Y-2.1316
X4.775Y-2.23
X4.775Y-2.3284
X4.8809Y-4.0043
X4.8809Y-4.1043
X5.3937Y-4.5082
X5.3937Y-4.6082
X5.46Y-3.987
X5.56Y-3.987
X5.66Y-3.987
X5.76Y-3.987
X5.86Y-3.987
X5.96Y-3.987
X5.986Y-4.4
X5.986Y-4.5
X5.986Y-4.6
X5.986Y-4.7
X5.986Y-4.8
X5.986Y-4.9
X6.0Y-2.0989
X6.0Y-2.1989
X6.0Y-2.2989
X6.0Y-2.3989
X6.0Y-2.4989
X6.0Y-2.5989
X6.0Y-2.6989
X6.06Y-3.987
X6.16Y-3.987
X6.51Y-2.328
X6.51Y-2.4658
X6.5575Y-1.62
X6.5575Y-1.72
X6.5575Y-1.82
X6.5575Y-1.92
X6.686Y-4.1
X6.686Y-4.2
X6.686Y-4.3
X6.686Y-4.4
X6.686Y-4.5
X6.686Y-4.6
X6.686Y-4.7
X6.686Y-4.8
X6.686Y-4.9
X6.686Y-5.0
X6.686Y-5.1
X6.686Y-5.2
X6.8222Y-2.53
X6.96Y-2.53
T5
X5.1378Y-4.1339
X5.1378Y-4.3307
X5.6378Y-4.1339
X5.6378Y-4.3307
X6.116Y-2.846
X6.616Y-2.846
T6
X3.415Y-4.26
X3.415Y-4.819
X4.3166Y-4.26
X4.3166Y-4.3978
X4.3166Y-4.697
X4.3166Y-4.8308
T7
X4.398Y-3.755
X4.812Y-2.752
X4.813Y-4.758
X5.184Y-3.754
X5.814Y-2.338
X5.814Y-5.172
X5.815Y-3.125
X5.815Y-4.385
X6.444Y-3.755
X6.817Y-2.752
X6.817Y-4.757
X7.232Y-3.755
T8
X4.4797Y-2.0095
X4.4797Y-2.4505
T2
G00X6.726Y-1.8332
M15
G01X6.7063Y-1.8673
M16
G05
G00X7.0021Y-1.788
M15
G01X6.968Y-1.7683
M16
G05
G00X7.0472Y-2.0641
M15
G01X7.0669Y-2.03
M16
G05
T3
G00X6.8083Y-1.8875
M15
G01X6.7945Y-1.9114
M16
G05
G00X6.965Y-2.0098
M15
G01X6.9787Y-1.9859
M16
G05
M30
